HIERARCHY
ROOT hip
{
  OFFSET 0 0 0
  CHANNELS 6 Xposition Yposition Zposition Zrotation Yrotation Xrotation
  JOINT abdomen
  {
    OFFSET 0 20.6881 -0.73152
    CHANNELS 3 Zrotation Xrotation Yrotation
    JOINT chest
    {
      OFFSET 0 11.7043 -0.48768
      CHANNELS 3 Zrotation Xrotation Yrotation
      JOINT neck
      {
        OFFSET 0 22.1894 -2.19456
        CHANNELS 3 Zrotation Xrotation Yrotation
        JOINT head
        {
          OFFSET -0.24384 7.07133 1.2192
          CHANNELS 3 Zrotation Xrotation Yrotation
          JOINT leftEye
          {
            OFFSET 4.14528 8.04674 8.04672
            CHANNELS 3 Zrotation Xrotation Yrotation
            End Site
            {
              OFFSET 1 0 0
            }
          }
          JOINT rightEye
          {
            OFFSET -3.6576 8.04674 8.04672
            CHANNELS 3 Zrotation Xrotation Yrotation
            End Site
            {
              OFFSET 1 0 0
            }
          }
        }
      }
      JOINT rCollar
      {
        OFFSET -2.68224 19.2634 -4.8768
        CHANNELS 3 Zrotation Xrotation Yrotation
        JOINT rShldr
        {
          OFFSET -8.77824 -1.95073 1.46304
          CHANNELS 3 Zrotation Xrotation Yrotation
          JOINT rForeArm
          {
            OFFSET -28.1742 -1.7115 0.48768
            CHANNELS 3 Zrotation Xrotation Yrotation
            JOINT rHand
            {
              OFFSET -22.5879 0.773209 7.07136
              CHANNELS 3 Zrotation Xrotation Yrotation
              JOINT rThumb1
              {
                OFFSET -1.2192 -0.487915 3.41376
                CHANNELS 3 Zrotation Xrotation Yrotation
                JOINT rThumb2
                {
                  OFFSET -3.37035 -0.52449 3.41376
                  CHANNELS 3 Zrotation Xrotation Yrotation
                  End Site
                  {
                    OFFSET -1.78271 -1.18214 1.43049
                  }
                }
              }
              JOINT rIndex1
              {
                OFFSET -7.75947 0.938293 5.60832
                CHANNELS 3 Zrotation Xrotation Yrotation
                JOINT rIndex2
                {
                  OFFSET -2.54057 -0.884171 1.56538
                  CHANNELS 3 Zrotation Xrotation Yrotation
                  End Site
                  {
                    OFFSET -1.62519 -0.234802 1.16502
                  }
                }
              }
              JOINT rMid1
              {
                OFFSET -8.24714 1.18213 3.41376
                CHANNELS 3 Zrotation Xrotation Yrotation
                JOINT rMid2
                {
                  OFFSET -3.10165 -0.590103 1.0647
                  CHANNELS 3 Zrotation Xrotation Yrotation
                  End Site
                  {
                    OFFSET -2.48547 -0.328903 0.83742
                  }
                }
              }
              JOINT rRing1
              {
                OFFSET -8.82822 0.546677 1.51678
                CHANNELS 3 Zrotation Xrotation Yrotation
                JOINT rRing2
                {
                  OFFSET -2.60934 -0.819778 -0.0198488
                  CHANNELS 3 Zrotation Xrotation Yrotation
                  End Site
                  {
                    OFFSET -2.33842 -0.294052 0.168128
                  }
                }
              }
              JOINT rPinky1
              {
                OFFSET -8.27202 -0.0477905 -0.4584
                CHANNELS 3 Zrotation Xrotation Yrotation
                JOINT rPinky2
                {
                  OFFSET -1.82734 -0.647385 -0.700984
                  CHANNELS 3 Zrotation Xrotation Yrotation
                  End Site
                  {
                    OFFSET -1.69225 -0.51767 -0.607171
                  }
                }
              }
            }
          }
        }
      }
      JOINT lCollar
      {
        OFFSET 2.68224 19.2634 -4.8768
        CHANNELS 3 Zrotation Xrotation Yrotation
        JOINT lShldr
        {
          OFFSET 8.77824 -1.95073 1.46304
          CHANNELS 3 Zrotation Xrotation Yrotation
          JOINT lForeArm
          {
            OFFSET 28.1742 -1.7115 0.48768
            CHANNELS 3 Zrotation Xrotation Yrotation
            JOINT lHand
            {
              OFFSET 22.5879 0.773209 7.07136
              CHANNELS 3 Zrotation Xrotation Yrotation
              JOINT lThumb1
              {
                OFFSET 1.2192 -0.487915 3.41376
                CHANNELS 3 Zrotation Xrotation Yrotation
                JOINT lThumb2
                {
                  OFFSET 3.37035 -0.52449 3.41376
                  CHANNELS 3 Zrotation Xrotation Yrotation
                  End Site
                  {
                    OFFSET 1.78271 -1.18214 1.43049
                  }
                }
              }
              JOINT lIndex1
              {
                OFFSET 7.75947 0.938293 5.60832
                CHANNELS 3 Zrotation Xrotation Yrotation
                JOINT lIndex2
                {
                  OFFSET 2.54057 -0.884171 1.56538
                  CHANNELS 3 Zrotation Xrotation Yrotation
                  End Site
                  {
                    OFFSET 1.62519 -0.234802 1.16502
                  }
                }
              }
              JOINT lMid1
              {
                OFFSET 8.24714 1.18213 3.41376
                CHANNELS 3 Zrotation Xrotation Yrotation
                JOINT lMid2
                {
                  OFFSET 3.10165 -0.590103 1.0647
                  CHANNELS 3 Zrotation Xrotation Yrotation
                  End Site
                  {
                    OFFSET 2.48547 -0.328903 0.83742
                  }
                }
              }
              JOINT lRing1
              {
                OFFSET 8.82822 0.546677 1.51678
                CHANNELS 3 Zrotation Xrotation Yrotation
                JOINT lRing2
                {
                  OFFSET 2.60934 -0.819778 -0.0198488
                  CHANNELS 3 Zrotation Xrotation Yrotation
                  End Site
                  {
                    OFFSET 2.33842 -0.294052 0.168128
                  }
                }
              }
              JOINT lPinky1
              {
                OFFSET 8.27202 -0.0477905 -0.4584
                CHANNELS 3 Zrotation Xrotation Yrotation
                JOINT lPinky2
                {
                  OFFSET 1.82734 -0.647385 -0.700984
                  CHANNELS 3 Zrotation Xrotation Yrotation
                  End Site
                  {
                    OFFSET 1.69225 -0.51767 -0.607171
                  }
                }
              }
            }
          }
        }
      }
    }
  }
  JOINT rButtock
  {
    OFFSET -8.77824 4.35084 1.2192
    CHANNELS 3 Zrotation Xrotation Yrotation
    JOINT rThigh
    {
      OFFSET 0 -1.70687 -2.19456
      CHANNELS 3 Zrotation Xrotation Yrotation
      JOINT rShin
      {
        OFFSET 0 -36.8199 0.73152
        CHANNELS 3 Zrotation Xrotation Yrotation
        JOINT rFoot
        {
          OFFSET 0.73152 -45.1104 -5.12064
          CHANNELS 3 Zrotation Xrotation Yrotation
          End Site
          {
            OFFSET -1.1221 -3.69964 12.103
          }
        }
      }
    }
  }
  JOINT lButtock
  {
    OFFSET 8.77824 4.35084 1.2192
    CHANNELS 3 Zrotation Xrotation Yrotation
    JOINT lThigh
    {
      OFFSET 0 -1.70687 -2.19456
      CHANNELS 3 Zrotation Xrotation Yrotation
      JOINT lShin
      {
        OFFSET 0 -36.8199 0.73152
        CHANNELS 3 Zrotation Xrotation Yrotation
        JOINT lFoot
        {
          OFFSET -0.73152 -45.1104 -5.12064
          CHANNELS 3 Zrotation Xrotation Yrotation
          End Site
          {
            OFFSET 1.1221 -3.69964 12.103
          }
        }
      }
    }
  }
}
MOTION
Frames:	8
Frame Time:	0.03333
6.7372000000000005 87.5842 5.8805000000000005 -116.113234 41.381384 -120.391421 3.88676 38.972808 -2.320867 16.365242 -14.058769 -24.725608 -22.018546 31.928423 122.61811 -56.002181 -15.901084 -144.65944 7.080487 -1.729708 -27.42446 53.707719 7.674176 15.091703 -162.936324 -33.810566 152.77475 140.863487 -16.930987 166.499718 -33.559091 -63.517153 29.404983 4.466283 -17.304284 0.429985 -69.917002 48.046878 45.601708 -158.37763 -64.471909 119.532379 -179.12502 55.512653 163.948389 85.052375 80.809424 -156.326163 -89.073729 71.764471 81.005228 -174.606138 -1.682469 168.038766 -46.540047 35.44096 28.743788 -126.073368 -10.907647 -177.120126 -7.159188 0.736808 -12.365672 11.964698 -52.069961 33.296017 83.560621 -51.161304 107.543551 85.080064 -5.748201 142.84148 123.172809 -15.4794 44.559326 -38.826773 -59.875189 -39.569494 85.348758 37.934558 -55.2747 -43.848427 50.002395 6.130035 167.708099 -20.904794 -162.864503 168.54261 34.362083 -108.728319 -11.622124 3.375345 22.30089 9.336158 65.207584 71.969614 -9.208146 -45.493746 -8.654589 -135.156678 -40.63243 -164.39193 -130.493925 -10.100738 166.436979 -153.270535 40.902895 -143.514655 -41.08888 -5.372653 -89.272539 60.946467 -58.959316 64.546495 143.096579 65.929569 -45.865381 -134.096764 -29.393153 96.53786 27.277214 -68.708158 13.129139 36.174135 27.994928 -18.248022 2.187479 47.796102 87.394853 41.334685 -82.258929 -48.769868
7.0854 86.2471 4.6981 -119.303241 41.991541 -122.88057 3.070866 33.950726 174.512947 -16.965492 8.407278 157.520487 -19.775308 29.858059 106.710311 -51.438534 -25.53174 -137.043947 8.370442 -2.095171 -28.060457 53.431625 5.509763 10.922661 17.774552 -34.751548 8.56878 100.709847 54.03147 -78.288059 170.922144 68.143021 91.328273 178.813134 7.799083 146.147905 -154.540037 1.929698 100.104837 0.178511 -18.925988 18.332455 14.408855 65.694711 -56.715828 173.000896 43.133026 72.478764 -161.758255 -67.597932 166.537502 -14.888413 38.061469 38.958141 -97.052512 59.513741 83.74963 31.775107 30.582021 7.032417 -130.259037 -12.434359 -115.228622 40.42749 -7.635958 -16.928188 80.267307 -52.254348 104.5203 -72.056043 -12.60623 39.821149 54.280956 77.363888 -159.343833 -7.891434 -17.452831 -14.663356 -20.056354 -11.531721 1.992435 43.601207 34.114732 53.318379 21.361581 33.429327 32.75195 46.408889 46.422622 -67.801279 92.043531 82.049687 -93.163788 -79.240353 24.41883 64.914249 144.800765 -2.526466 -171.167816 108.064164 -22.624648 -164.93202 -132.681633 -73.907697 141.604595 150.756807 -24.381138 29.391059 -43.217335 9.66988 -92.507961 78.773035 -55.778175 167.259683 122.264231 -12.985879 140.498883 52.126033 -12.23242 -173.019842 -41.823064 -29.59834 -95.710669 66.386108 62.930035 180.0 30.38901 -38.912071 163.113609 -8.263257 -86.153404 72.688472
7.6059 85.4294 3.8252 -121.675747 42.373514 -124.513157 2.963948 33.509997 174.642209 -17.854007 7.52039 156.171261 -21.063568 31.136462 123.60084 -59.596767 -9.269104 -154.930598 12.967194 -1.450536 -12.711956 52.923027 5.938208 11.898013 -130.216419 33.740656 139.399279 -10.385539 6.55117 56.752618 10.497625 1.199606 -100.87345 178.828421 12.156349 149.205484 82.163173 -63.471613 22.754771 -85.696652 16.529682 40.640027 -164.673928 -3.919116 176.178714 -5.586965 -11.98924 -89.039146 -131.951739 75.628042 122.791998 -11.084132 -20.757482 -29.293425 -28.96419 -4.550093 6.313646 -140.662229 -36.986307 -155.554604 -60.037669 -32.992656 -59.594358 15.549426 34.024298 52.279507 149.496503 6.405977 167.872285 91.235381 -24.59132 59.272125 -1.582197 71.732464 139.102299 -173.430351 7.046454 -156.614497 -170.65899 -31.800624 -84.802949 -29.815345 -44.682444 -98.926767 81.067612 -52.633192 103.515867 141.815263 73.29299 -139.64947 68.749683 -81.593087 107.487885 -24.652818 -42.099104 -86.482252 -6.509188 -45.888898 1.873822 -131.386479 -56.743911 -148.895365 -118.873441 -3.466993 171.369603 17.892657 -72.943406 -93.669606 71.370494 -22.575251 82.626019 -130.396372 -19.194064 108.791687 120.748312 -22.928327 -76.889479 -69.489004 -22.997257 41.20988 -43.74372 -57.537388 -83.989272 48.168108 53.8188 -0.0 -25.141705 50.75428 -127.777322 -48.332445 28.351705 176.670975
8.1724 84.4031 2.7285 -122.32079 45.106138 -124.387185 1.969268 33.461471 165.608789 -19.002294 5.419644 164.374626 -35.069154 35.555826 -156.697309 -54.665148 56.879804 161.844675 1.434138 0.091109 7.269698 49.668477 5.513223 11.879467 10.973849 0.339803 9.441533 -42.313563 -65.38118 -90.688009 61.46409 40.863597 21.243293 -11.649396 34.056149 8.98573 -70.390019 52.827987 43.499922 -24.256293 15.367388 20.447696 -169.257646 14.476769 169.53205 102.258259 54.226767 -145.373841 -76.278648 -72.586911 -102.948411 99.682824 -58.250184 46.205511 -169.707558 -26.095657 -175.372916 19.629541 -24.733421 9.678104 18.0239 20.685676 -18.096521 -172.857566 -75.748295 -136.279972 114.067779 -43.948718 140.452374 -92.534307 18.345538 68.688443 159.885541 -63.646624 -48.003697 -168.290428 -2.947142 -152.953682 -90.348183 -52.116135 -31.670356 -125.205609 6.521688 -114.990805 26.902356 17.166927 48.228334 -154.624658 -59.110727 -48.247248 13.600362 59.619296 -8.834258 -18.129565 -5.491757 80.054934 -0.2922 -2.035593 -4.30024 28.024836 -3.314948 5.090295 100.895413 -9.843245 -40.823588 -136.093709 4.782339 -11.458956 -27.503085 -4.939851 -92.111177 98.659443 -57.785653 -166.561325 125.148692 -7.276036 -91.354744 -56.941991 -20.283921 41.565818 -8.128824 11.476107 -144.325146 -37.750008 69.007596 35.60698 -19.313552 -43.657704 116.857177 91.529064 32.493141 -9.967948
8.8781 83.0968 1.5795 -123.250503 48.344836 -124.464928 1.78355 37.964846 0.0 16.451816 -15.678212 -29.836625 -44.894412 23.636746 -61.658782 67.203923 29.857623 8.213134 -9.975275 -1.451858 16.521605 48.071099 5.857109 13.08759 -133.874282 16.087078 146.352629 77.140272 -44.435576 86.286556 37.401734 73.033359 -133.639672 -178.519488 14.791681 153.835099 -87.907108 49.941662 57.4272 -24.873122 16.880388 29.542452 -94.509228 -52.192398 -127.524492 -39.016228 -67.249954 -154.992369 -13.51804 -35.258256 -36.706594 179.103516 -32.00968 109.971247 -42.596315 -58.437431 -36.553023 -7.847437 28.053876 13.717386 -32.497467 -23.175349 -47.694914 -114.196331 23.919727 157.559461 75.841979 -55.398787 103.68579 -142.931072 46.795146 70.351857 -176.293902 5.643494 -29.690073 -173.222139 16.298003 -154.114817 166.948025 -13.378764 -94.632765 -166.627492 -41.911758 -10.121198 172.878347 -16.301216 -176.5828 27.784147 -11.540428 45.165021 3.727771 35.615792 4.821475 85.945613 -14.013414 101.363413 68.864663 77.724323 -86.680686 -6.045818 27.109772 35.300896 -122.904069 15.120387 -161.761844 142.102845 1.119873 -76.49512 -21.33735 -0.718076 -88.162451 109.915251 -55.84057 -180.0 137.098461 0.404934 46.813908 -147.851897 18.126726 138.483977 63.991121 5.28937 139.063036 -18.937742 35.913093 180.0 -46.413843 2.651533 90.889299 -150.290591 -27.282464 -13.047503
9.6667 81.8435 0.7096 -125.370916 51.205356 -125.22288 0.859081 37.409368 4.587022 14.978662 -18.426262 -35.219567 -29.335613 36.383909 158.639865 -64.513733 22.377724 -172.939368 -12.64277 -0.650253 5.864772 46.219915 5.612499 13.105077 14.039404 0.585272 11.272318 -174.467952 65.839799 -137.845671 -152.775953 -42.609299 -99.285416 5.946891 -20.768119 11.919114 178.752082 -30.629971 97.005489 -164.275727 -9.691524 71.947834 -25.126415 -21.891261 -59.875785 149.819534 -54.661194 15.126773 -168.018724 25.626937 163.727047 -173.9353 24.728008 165.053079 -20.064449 60.510462 16.942578 7.803614 34.948073 -21.739475 -12.331733 -15.369242 -35.467215 162.779376 -65.826837 167.051299 170.99384 53.531398 169.966255 82.238477 28.861569 -14.131286 -104.705283 -44.052753 108.859386 21.948321 70.290142 -14.208684 169.606193 -12.675821 -96.592893 -28.941903 -4.070122 -76.78856 -176.515342 7.190401 -169.715711 70.047141 83.083634 8.023973 -2.218282 -26.543744 18.011393 81.510354 1.240779 35.824083 147.367797 8.650093 163.313954 -127.212404 60.660117 87.864544 -128.452491 23.881357 -151.989697 -120.854965 11.099253 -119.199629 -18.58706 13.348125 -85.618751 123.10693 -51.214606 -158.063113 137.711072 -18.000329 66.639194 50.770807 37.26116 -138.444365 87.973601 -30.373545 112.477478 4.019291 34.4658 -2.21122 42.871524 24.046267 -54.367896 89.01082 -11.211413 -9.160994
10.4876 80.4619 0.1646 -127.853094 53.904879 -126.373838 -0.329364 32.30647 -177.0576 -15.362019 15.03664 145.879171 -31.247403 21.468961 35.854387 21.551955 -54.704249 -58.70597 -6.953494 0.601018 -9.868061 43.456126 4.423163 11.07004 12.920072 0.967673 12.126171 49.094709 18.954366 -18.861403 115.216528 20.720553 122.255736 -151.52203 59.993254 138.686632 -98.582134 45.069936 59.042612 47.010387 -25.116549 6.283371 -4.684276 65.928261 -32.022139 15.205277 -34.712446 64.343278 -18.831955 76.363467 1.29553 -3.030615 -30.628386 9.203244 -110.795527 -58.122797 -115.400468 31.102216 -9.346197 15.249724 -145.45 26.160636 -121.778792 -12.344868 -27.323646 -63.258792 142.830056 -17.638607 163.292742 6.465367 24.941996 68.910051 5.133961 -24.505479 150.076905 -166.171604 -5.089111 -151.763054 -68.109014 -54.976718 -21.052997 -139.7993 -44.733658 -154.77557 0.902742 68.946352 55.46109 -130.976183 15.914561 -51.696625 10.904193 44.843643 0.479863 -154.570336 21.375545 122.613626 108.4303 -37.432266 125.547639 25.763271 -81.733211 99.340564 -149.093475 38.547187 -132.673316 -71.543026 3.215464 -119.805037 36.627726 75.200574 180.0 164.690354 -21.57924 -36.660879 -117.894133 13.906334 101.825744 -102.984205 -11.146587 36.284928 21.991654 15.027408 180.0 -29.269307 48.482834 -36.016589 50.808099 -7.189676 -111.117193 170.150033 -14.933213 -37.624195
11.3236 78.7236 0.058 -129.483671 55.01713 -127.602218 -1.198441 32.096157 -178.745123 -16.047135 14.765531 151.510526 -23.674251 35.007522 115.750937 -64.122026 -9.034453 -153.209962 -1.797775 0.198986 -12.631115 39.259663 4.805097 13.418312 -125.80213 30.360476 135.594055 -176.760469 -3.606108 123.490399 -6.643414 5.8932 70.572349 6.250563 -11.156557 10.598594 -77.367492 45.293368 40.844446 -16.198376 23.508629 37.046417 -163.215319 -21.959508 171.681388 -14.013116 -2.14039 -89.313182 -22.238681 67.673313 -2.81605 92.549106 -63.309301 71.255051 -68.284141 85.168927 68.656421 144.051729 55.377368 -145.06561 45.18054 54.733547 -17.135776 -138.158606 -34.931646 -90.038901 142.976818 -15.937251 162.690581 88.010135 -16.466864 64.16887 -130.506117 -68.254096 113.491051 -2.557453 22.747266 -6.489022 8.858317 4.465986 6.260637 52.004615 -26.784482 104.025534 170.465222 -13.096922 177.980888 -84.431149 52.136488 143.507603 2.849086 -0.490476 14.659561 22.907253 34.807287 74.781272 -85.262657 77.886525 66.60263 -149.831144 19.192295 174.531871 83.753689 -51.333241 -43.068815 -177.954164 6.033398 16.860739 44.274732 84.168921 180.0 166.178993 -27.098586 -90.666238 -122.99289 -30.149789 151.713709 -143.072105 3.428832 98.57554 104.241802 -81.276253 93.385257 33.5252 41.019413 -110.57798 -63.982697 -10.600605 -41.424044 -177.794915 6.228214 -149.760716
